<?xml version="1.0" encoding="utf-8"?>
<!-- Generator: Adobe Illustrator 23.1.1, SVG Export Plug-In . SVG Version: 6.00 Build 0)  -->
<svg version="1.1" id="Layer_1" xmlns="http://www.w3.org/2000/svg" xmlns:xlink="http://www.w3.org/1999/xlink" x="0px" y="0px"
	 viewBox="0 0 242.24 207.76" style="enable-background:new 0 0 242.24 207.76;" xml:space="preserve">
<style type="text/css">
	.st0{fill:#0480B9;stroke:#4B499B;stroke-width:5;stroke-miterlimit:10;}
	.st1{fill:#04ABB9;stroke:#373662;stroke-width:5;stroke-miterlimit:10;}
</style>
<path class="st0" d="M61.34,110.49c0,0,1.65-86.38,101.66-76.04c20.69-18.1,29.28-24.12,40.48-14.64
	c11.21,9.48,10.23,22.42-18.6,28.46c30.66,10.34,48.75,19.83,48.75,19.83l-20.69,13.79l-34.48-10.34c0,0-20.69,48.35-56.9,55.25
	c-36.21,6.9-20.69,30.25-20.69,30.25h-23c0,0-5.45-17.26,0.59-29.33C62.07,122.55,61.34,110.49,61.34,110.49z"/>
<path class="st1" d="M41.34,145.49c0,0,1.65-86.38,101.66-76.04c20.69-18.1,29.28-24.12,40.48-14.64s10.23,22.42-18.6,28.46
	c30.66,10.34,48.75,19.83,48.75,19.83l-20.69,13.79l-34.49-10.34c0,0-20.69,48.35-56.9,55.25c-36.21,6.9-20.69,30.25-20.69,30.25
	h-23c0,0-5.45-17.26,0.59-29.33C42.07,157.55,41.34,145.49,41.34,145.49z"/>
</svg>
